<svg width="15" height="19" viewBox="0 0 15 19" fill="none" xmlns="http://www.w3.org/2000/svg">
<path d="M14 3.68421H1M9.23333 9.94737V14.4211M5.76667 9.94737V14.4211M1.5769 8.29515C1.49945 7.25583 2.29543 6.36842 3.30512 6.36842H11.6948C12.7046 6.36842 13.5005 7.25582 13.4231 8.29515L12.8231 16.3478C12.7536 17.2801 12.0006 18 11.0948 18H3.90512C2.99939 18 2.24636 17.2801 2.17689 16.3478L1.5769 8.29515ZM5.76667 1.89474C5.76667 1.40059 6.15467 1 6.63333 1H8.36667C8.84533 1 9.23333 1.40059 9.23333 1.89474V3.68421H5.76667V1.89474Z" stroke="#CDCDCD" stroke-linecap="round"/>
</svg>
