<svg width="13" height="16" viewBox="0 0 13 16" fill="none" xmlns="http://www.w3.org/2000/svg">
<path d="M12.25 3.25H1M8.125 8.5V12.25M5.125 8.5V12.25M1.49924 7.11505C1.43222 6.24386 2.12105 5.5 2.99481 5.5H10.2551C11.129 5.5 11.8178 6.24385 11.7508 7.11505L11.2315 13.865C11.1714 14.6465 10.5197 15.25 9.73592 15.25H3.51404C2.73024 15.25 2.07858 14.6465 2.01846 13.865L1.49924 7.11505ZM5.125 1.75C5.125 1.33579 5.46078 1 5.875 1H7.375C7.78922 1 8.125 1.33579 8.125 1.75V3.25H5.125V1.75Z" stroke="#CDCDCD" stroke-linecap="round"/>
</svg>
