<svg width="18" height="17" viewBox="0 0 18 17" fill="none" xmlns="http://www.w3.org/2000/svg">
<path d="M9.21258 4.1813L1 12.3938V16.5H5.10629L13.3189 8.28752M9.21258 4.1813L12.1574 1.23645L12.1593 1.2347C12.5646 0.829336 12.7676 0.626293 13.0017 0.550245C13.2079 0.483252 13.43 0.483252 13.6362 0.550245C13.87 0.626241 14.0729 0.829049 14.4777 1.23384L16.2637 3.01985C16.6702 3.42639 16.8736 3.62975 16.9498 3.86415C17.0168 4.07032 17.0167 4.29241 16.9498 4.49859C16.8737 4.73281 16.6706 4.93586 16.2646 5.34182L16.2637 5.34269L13.3189 8.28752M9.21258 4.1813L13.3189 8.28752" stroke="#CDCDCD" stroke-linecap="round" stroke-linejoin="round"/>
</svg>
